# AST/ASF file generated using VICON BodyLanguage
# -----------------------------------------------
:version 1.10
:name VICON
:units
  mass 1.0
  length 0.45
  angle deg
:documentation
   .ast/.asf automatically generated from VICON data using
   VICON BodyBuilder and BodyLanguage model FoxedUp or BRILLIANT.MOD
:root
   order TX TY TZ RX RY RZ
   axis XYZ
   position 0 0 0  
   orientation 0 0 0 
:bonedata
  begin
     id 1 
     name lhipjoint
     direction 0.610259 -0.730986 0.305356 
     length 2.50941 
     axis 0 0 0  XYZ
  end
  begin
     id 2 
     name lfemur
     direction 0.34202 -0.939693 0  
     length 7.48822  
     axis 0 0 20  XYZ
    dof rx ry rz
    limits (-160.0 20.0)
           (-70.0 70.0)
           (-60.0 70.0)
  end
  begin
     id 3 
     name ltibia
     direction 0.34202 -0.939693 0   
     length 7.60141   
     axis 0 0 20   XYZ
    dof rx
    limits (-10.0 170.0)
  end
  begin
     id 4 
     name lfoot
     direction 0.0673488 -0.185039 0.980421   
     length 2.04049   
     axis -90 7.62852e-016 20   XYZ
    dof rx rz
    limits (-45.0 90.0)
           (-70.0 20.0)
  end
  begin
     id 5 
     name ltoes
     direction 1.5356e-011 -4.21729e-011 1   
     length 1.02897   
     axis -90 7.62852e-016 20   XYZ
    dof rx
    limits (-90.0 20.0)
  end
  begin
     id 6 
     name rhipjoint
     direction -0.57612 -0.754205 0.315056   
     length 2.43216  
     axis 0 0 0  XYZ 
  end
  begin
     id 7 
     name rfemur
     direction -0.34202 -0.939693 0   
     length 7.42799   
     axis 0 0 -20   XYZ
    dof rx ry rz
    limits (-160.0 20.0)
           (-70.0 70.0)
           (-70.0 60.0)
  end
  begin
     id 8 
     name rtibia
     direction -0.34202 -0.939693 0   
     length 7.69484   
     axis 0 0 -20   XYZ
    dof rx
    limits (-10.0 170.0)
 end
 begin
     id 9 
     name rfoot
     direction -0.111837 -0.30727 0.945028   
     length 2.15769  
     axis -90 -7.62852e-016 -20   XYZ
    dof rx rz
    limits (-45.0 90.0)
           (-20.0 70.0)
  end
  begin
     id 10 
     name rtoes
     direction -1.53539e-011 -4.21878e-011 1   
     length 1.07391   
     axis -90 -7.62852e-016 -20   XYZ
    dof rx
    limits (-90.0 20.0)
  end
  begin
     id 11 
     name lowerback
     direction 0.00552624 0.990109 -0.140195   
     length 2.12403   
     axis 0 0 0   XYZ
    dof rx ry rz
    limits (-20.0 45.0)
           (-30.0 30.0)
           (-30.0 30.0)
  end
  begin
     id 12 
     name upperback
     direction 0.00361898 0.999976 -0.00584723   
     length 2.13232   
     axis 0 0 0   XYZ
    dof rx ry rz
    limits (-20.0 45.0)
           (-30.0 30.0)
           (-30.0 30.0)
  end
  begin
     id 13 
     name thorax
     direction -0.000331275 0.998253 0.0590847   
     length 2.17688   
     axis 0 0 0   XYZ
    dof rx ry rz
    limits (-20.0 45.0)
           (-30.0 30.0)
           (-30.0 30.0)
  end
  begin
     id 14 
     name lowerneck
     direction -0.0561561 0.979832 0.19177   
     length 1.64159   
     axis 0 0 0   XYZ
    dof rx ry rz
    limits (-20.0 45.0)
           (-30.0 30.0)
           (-30.0 30.0)
  end
  begin
     id 15 
     name upperneck
     direction 0.0827153 0.979385 -0.184293   
     length 1.68939   
     axis 0 0 0   XYZ
    dof rx ry rz
    limits (-20.0 45.0)
           (-30.0 30.0)
           (-30.0 30.0)
  end
  begin
     id 16
     name head
     direction 0.0278583 0.995936 -0.0856488  
     length 1.70207  
     axis 0 0 0   XYZ
    dof rx ry rz
    limits (-20.0 45.0)
           (-30.0 30.0)
           (-30.0 30.0)
  end
  begin
     id 17 
     name lclavicle
     direction 0.950993 0.301131 -0.0702275  
     length 3.41652  
     axis 0 0 0   XYZ
    dof ry rz
    limits (-20.0 10.0)
           (0.0 20.0)
  end
  begin
     id 18 
     name lhumerus
     direction 1 -4.48981e-011 -3.9662e-029   
     length 5.32955   
     axis 180 -30 -90   XYZ
    dof rx ry rz
    limits (-60.0 90.0)
           (-90.0 90.0)
           (-90.0 90.0)
  end
  begin
     id 19
     name lradius
     direction 1 -4.48925e-011 -9.0549e-027   
     length 3.69232   
     axis 180 -30 -90   XYZ
    dof rx
    limits (-10.0 170.0)
  end
  begin
     id 20
     name lwrist
     direction 1 -4.49007e-011 -1.49005e-026   
     length 1.84616   
     axis 9.0955e-015 90 90   XYZ
    dof ry
    limits (-180.0 0.0)
 end
  begin
     id 21 
     name lhand
     direction 1 -4.49016e-011 -2.98023e-026   
     length 0.536598   
     axis 1.90115e-014 90 90   XYZ
    dof rx rz
    limits (-90.0 90.0)
           (-45.0 45.0)
  end
  begin
     id 22 
     name lfingers
     direction 1 -4.48924e-011 -5.9578e-026   
     length 0.432619   
     axis 3.80223e-014 90 90   XYZ
    dof rx
    limits (0.0 90.0)
  end
  begin
     id 23
     name lthumb
     direction 0.707107 -6.34947e-011 0.707107   
     length 0.621157   
     axis -90 45 -3.84942e-014   XYZ
    dof rx rz
    limits (-45.0 45.0)
           (-45.0 45.0)
  end
  begin
     id 24 
     name rclavicle
     direction -0.955495 0.276497 -0.102848   
     length 3.36357  
     axis 0 0 0   XYZ 
    dof ry rz
    limits (-10.0 20.0)
           (-20.0 0.0)
  end
  begin
     id 25 
     name rhumerus
     direction -1 -4.48961e-011 3.30983e-027  
     length 5.23431   
     axis 180 30 90   XYZ
    dof rx ry rz
    limits (-90.0 60.0)
           (-90.0 90.0)
           (-90.0 90.0)
  end
  begin
     id 26 
     name rradius
     direction -1 -4.48965e-011 -6.63263e-027   
     length 3.55301   
     axis 180 30 90   XYZ
    dof rx
    limits (-10.0 170.0)
  end
  begin
     id 27 
     name rwrist
     direction -1 -4.48942e-011 -1.48958e-026   
     length 1.77651   
     axis 9.0955e-015 -90 -90   XYZ
    dof ry
    limits (-180.0 0.0)
  end
  begin
     id 28
     name rhand
     direction -1 -4.48977e-011 -2.97966e-026   
     length 0.772522   
     axis 1.90115e-014 -90 -90   XYZ
    dof rx rz
    limits (-90.0 90.0)
           (-45.0 45.0)
  end
  begin
     id 29
     name rfingers
     direction -1 -4.49135e-011 -5.96389e-026   
     length 0.622827   
     axis 3.80223e-014 -90 -90   XYZ
    dof rx
    limits (0.0 90.0)
  end
  begin
     id 30
     name rthumb
     direction -0.707107 -6.34969e-011 0.707107   
     length 0.894259   
     axis -90 -45 3.84942e-014   XYZ
    dof rx rz
    limits (-45.0 45.0)
           (-45.0 45.0)
  end
:hierarchy
  begin
    root lhipjoint rhipjoint lowerback
    lhipjoint lfemur
    lfemur ltibia
    ltibia lfoot
    lfoot ltoes
    rhipjoint rfemur
    rfemur rtibia
    rtibia rfoot
    rfoot rtoes
    lowerback upperback
    upperback thorax
    thorax lowerneck lclavicle rclavicle
    lowerneck upperneck
    upperneck head
    lclavicle lhumerus
    lhumerus lradius
    lradius lwrist
    lwrist lhand lthumb
    lhand lfingers
    rclavicle rhumerus
    rhumerus rradius
    rradius rwrist
    rwrist rhand rthumb
    rhand rfingers
  end

#!OML:ASF F:\VICON\USERDATA\INSTALL\rory3\rory3.ASF
:FULLY-SPECIFIED
:DEGREES
1
root 16.0199 17.8461 -9.80058 0.536405 -10.2684 0.394616
lowerback 7.81161 -0.0187554 -2.54937
upperback -0.512736 -0.240925 0.487405
thorax -4.90656 -0.0465294 1.96955
lowerneck -19.6418 -9.40244 -14.1995
upperneck 23.0822 -12.2929 12.2802
head 12.6421 -5.31519 4.86708
rclavicle 4.17525e-014 1.2921e-015
rhumerus -30.7482 -11.905 -82.7716
rradius 27.2458
rwrist 10.4631
rhand -16.2624 8.96792
rfingers 7.12502
rthumb 9.94701 -20.7771
lclavicle 4.17525e-014 1.2921e-015
lhumerus -29.9602 2.10987 87.2456
lradius 25.696
lwrist -8.99936
lhand -19.3428 27.0447
lfingers 7.12502
lthumb 6.97424 56.9098
rfemur -10.6809 -2.06961 19.06
rtibia 34.1939
rfoot -17.1678 -10.4437
rtoes -3.38642
lfemur -6.01317 0.166969 -23.6752
ltibia 24.6924
lfoot -13.8403 -0.019835
ltoes -3.79186
2
root 16.0209 17.8455 -9.79902 0.513866 -10.2971 0.441152
lowerback 7.84652 -0.00296101 -2.60569
upperback -0.508166 -0.226402 0.481216
thorax -4.92217 -0.0377869 1.9933
lowerneck -19.6556 -9.40358 -14.1625
upperneck 23.1027 -12.2911 12.2275
head 12.6455 -5.31661 4.84068
rclavicle -3.8732e-015 8.44835e-016
rhumerus -30.7781 -11.8665 -82.7403
rradius 27.312
rwrist 10.4289
rhand -16.2354 8.99974
rfingers 7.12502
rthumb 9.97306 -20.744
lclavicle -3.8732e-015 8.44835e-016
lhumerus -29.9789 2.00554 87.2977
lradius 25.7218
lwrist -8.77276
lhand -19.5633 26.9008
lfingers 7.12502
lthumb 6.76138 56.7729
rfemur -10.666 -2.01567 19.002
rtibia 34.1938
rfoot -17.1748 -10.4597
rtoes -3.54351
lfemur -5.98167 0.189641 -23.7294
ltibia 24.6753
lfoot -13.8231 -0.00380219
ltoes -3.76957
3
root 16.0217 17.8472 -9.79937 0.508263 -10.3027 0.416861
lowerback 7.92851 -0.00544958 -2.59056
upperback -0.5304 -0.230849 0.4799
thorax -4.99154 -0.0391396 1.98456
lowerneck -19.6198 -9.37005 -14.1258
upperneck 23.0753 -12.2626 12.2479
head 12.6218 -5.30008 4.84877
rclavicle -2.9841e-014 5.93869e-015
rhumerus -30.8161 -11.8124 -82.772
rradius 27.3428
rwrist 10.4096
rhand -16.281 8.87549
rfingers 7.12502
rthumb 9.92905 -20.8703
lclavicle -2.9841e-014 5.93869e-015
lhumerus -29.9996 1.73851 87.3687
lradius 25.5492
lwrist -8.60768
lhand -19.8731 26.7835
lfingers 7.12502
lthumb 6.46228 56.6649
rfemur -10.6312 -1.9033 19.0288
rtibia 34.1968
rfoot -16.9635 -10.5914
rtoes -5.59831
lfemur -5.97193 0.217254 -23.7035
ltibia 24.6772
lfoot -13.8287 -0.052097
ltoes -3.95402
4
root 16.0225 17.8481 -9.80063 0.529012 -10.2966 0.369929
lowerback 7.96414 0.00512664 -2.55527
upperback -0.516968 -0.213448 0.495282
thorax -4.99857 -0.0313138 1.97877
lowerneck -19.6822 -9.35219 -14.1471
upperneck 23.0521 -12.2422 12.3295
head 12.6303 -5.28093 4.88663
rclavicle -1.88411e-014 -9.93923e-017
rhumerus -30.7747 -11.7912 -82.7598
rradius 27.3819
rwrist 10.4447
rhand -16.201 8.81532
rfingers 7.12502
rthumb 10.0062 -20.9268
lclavicle -1.88411e-014 -9.93923e-017
lhumerus -29.9292 1.77549 87.3526
lradius 25.4635
lwrist -8.89176
lhand -19.6387 26.6147
lfingers 7.12502
lthumb 6.6886 56.489
rfemur -10.6319 -1.84353 19.0832
rtibia 34.1804
rfoot -16.8587 -10.6666
rtoes -6.46338
lfemur -5.99752 0.212861 -23.6518
ltibia 24.6833
lfoot -13.8377 -0.0903977
ltoes -3.92041
5
root 16.0232 17.8489 -9.79944 0.556205 -10.3192 0.343401
lowerback 7.94503 0.0429875 -2.56416
upperback -0.503627 -0.161599 0.527179
thorax -4.9765 -0.00548883 2.01058
lowerneck -19.8228 -9.3573 -14.1657
upperneck 23.1515 -12.2372 12.3357
head 12.699 -5.27322 4.89261
rclavicle 2.00276e-014 -1.13804e-014
rhumerus -30.7288 -11.8283 -82.6857
rradius 27.3779
rwrist 10.4883
rhand -16.1967 8.80875
rfingers 7.12502
rthumb 10.0104 -20.9332
lclavicle 2.00276e-014 -1.13804e-014
lhumerus -29.8838 1.85811 87.3726
lradius 25.4621
lwrist -9.11148
lhand -19.3243 26.6315
lfingers 7.12502
lthumb 6.99215 56.496
rfemur -10.6443 -1.82246 19.1138
rtibia 34.1564
rfoot -16.8222 -10.7033
rtoes -6.63653
lfemur -6.02467 0.229513 -23.6263
ltibia 24.6964
lfoot -13.8438 -0.0516372
ltoes -4.05643
6
root 16.0245 17.8518 -9.79877 0.63213 -10.3169 0.248778
lowerback 7.90832 0.0583417 -2.47838
upperback -0.529725 -0.13008 0.570014
thorax -4.98474 0.00880697 2.00298
lowerneck -19.8039 -9.34355 -14.1885
upperneck 23.1673 -12.2219 12.3609
head 12.7029 -5.26619 4.91054
rclavicle -1.17811e-014 9.93923e-017
rhumerus -30.7264 -11.7806 -82.6563
rradius 27.3997
rwrist 10.3601
rhand -16.2007 8.7221
rfingers 7.12502
rthumb 10.0065 -21.02
lclavicle -1.17811e-014 9.93923e-017
lhumerus -29.9673 1.80178 87.4463
lradius 25.5016
lwrist -8.98166
lhand -19.3938 26.5146
lfingers 7.12502
lthumb 6.92502 56.3813
rfemur -10.7013 -1.82638 19.222
rtibia 34.1256
rfoot -16.7503 -10.7232
rtoes -6.89065
lfemur -6.10425 0.250764 -23.523
ltibia 24.7227
lfoot -13.879 -0.0363599
ltoes -4.47409
7
root 16.0259 17.854 -9.79933 0.69364 -10.3134 0.202271
lowerback 7.89947 0.0603221 -2.42996
upperback -0.55747 -0.121939 0.587929
thorax -5.00919 0.012429 1.99344
lowerneck -19.8163 -9.32052 -14.1285
upperneck 23.2167 -12.1897 12.2861
head 12.709 -5.25467 4.87865
rclavicle -1.22066e-015 2.88238e-015
rhumerus -30.7427 -11.7216 -82.6471
rradius 27.4353
rwrist 10.2642
rhand -16.1653 8.86156
rfingers 7.12502
rthumb 10.0407 -20.8789
lclavicle -1.22066e-015 2.88238e-015
lhumerus -30.0414 1.79886 87.4735
lradius 25.5035
lwrist -8.98934
lhand -19.5335 26.2372
lfingers 7.12502
lthumb 6.79017 56.1083
rfemur -10.7648 -1.88004 19.2757
rtibia 34.1006
rfoot -16.6713 -10.7201
rtoes -7.42203
lfemur -6.17915 0.326084 -23.4681
ltibia 24.753
lfoot -13.913 -0.13545
ltoes -4.49596
8
root 16.0277 17.8546 -9.80028 0.725488 -10.298 0.203395
lowerback 7.91781 0.0562159 -2.42423
upperback -0.580661 -0.127813 0.582044
thorax -5.04352 0.010017 1.98498
lowerneck -19.7745 -9.27455 -14.0416
upperneck 23.211 -12.1334 12.2103
head 12.6764 -5.23282 4.84655
rclavicle 3.01283e-015 -3.27995e-015
rhumerus -30.7507 -11.7326 -82.6501
rradius 27.4492
rwrist 10.1709
rhand -16.1866 8.88072
rfingers 7.12502
rthumb 10.0201 -20.8608
lclavicle 3.01283e-015 -3.27995e-015
lhumerus -30.0718 1.91573 87.4238
lradius 25.4717
lwrist -9.19338
lhand -19.458 26.0942
lfingers 7.12502
lthumb 6.86309 55.9629
rfemur -10.7909 -1.89614 19.2685
rtibia 34.0813
rfoot -16.6712 -10.7038
rtoes -7.27039
lfemur -6.23405 0.292988 -23.4747
ltibia 24.7933
lfoot -13.8768 -0.183308
ltoes -4.10609
9
root 16.0282 17.8522 -9.80098 0.71799 -10.2904 0.202456
lowerback 7.94098 0.0514251 -2.41788
upperback -0.579931 -0.134238 0.580592
thorax -5.05552 0.00680829 1.98078
lowerneck -19.757 -9.20878 -14.1079
upperneck 23.278 -12.0588 12.3162
head 12.7013 -5.19392 4.91742
rclavicle 7.78677e-015 -9.88954e-015
rhumerus -30.7342 -11.8235 -82.6155
rradius 27.4347
rwrist 10.2092
rhand -16.18 8.70717
rfingers 7.12502
rthumb 10.0265 -21.034
lclavicle 7.78677e-015 -9.88954e-015
lhumerus -30.0436 1.9879 87.3889
lradius 25.394
lwrist -9.31518
lhand -19.3346 26.2478
lfingers 7.12502
lthumb 6.98217 56.1126
rfemur -10.7873 -1.91493 19.267
rtibia 34.0797
rfoot -16.8263 -10.6196
rtoes -5.87289
lfemur -6.24865 0.258062 -23.4781
ltibia 24.83
lfoot -13.8796 -0.162466
ltoes -4.20149
10
root 16.0281 17.8484 -9.80132 0.702066 -10.3077 0.201539
lowerback 7.93923 0.069465 -2.41323
upperback -0.551636 -0.109981 0.570573
thorax -5.02621 0.0178242 1.96466
lowerneck -19.8066 -9.1841 -14.1177
upperneck 23.3665 -12.0355 12.3559
head 12.7468 -5.17751 4.94127
rclavicle -1.62103e-014 3.67752e-015
rhumerus -30.706 -11.9944 -82.5568
rradius 27.4274
rwrist 10.3636
rhand -16.1311 8.63409
rfingers 7.12502
rthumb 10.0737 -21.1048
lclavicle -1.62103e-014 3.67752e-015
lhumerus -30.0182 1.89603 87.4001
lradius 25.4426
lwrist -9.29204
lhand -19.2082 26.4928
lfingers 7.12502
lthumb 7.10416 56.3535
rfemur -10.8048 -1.91946 19.2746
rtibia 34.0907
rfoot -17.0454 -10.5775
rtoes -3.59943
lfemur -6.2445 0.232481 -23.4779
ltibia 24.8517
lfoot -13.9365 -0.105269
ltoes -4.45702
11
root 16.0287 17.8476 -9.80179 0.682165 -10.2904 0.225708
lowerback 7.92818 0.0827999 -2.41732
upperback -0.512261 -0.0932522 0.545534
thorax -4.97967 0.0248029 1.93866
lowerneck -19.835 -9.19435 -14.0451
upperneck 23.4083 -12.0591 12.3019
head 12.7632 -5.1863 4.9035
rclavicle -3.92429e-014 1.13804e-014
rhumerus -30.6257 -12.2098 -82.5222
rradius 27.3723
rwrist 10.479
rhand -16.1124 8.64833
rfingers 7.12502
rthumb 10.0917 -21.0897
lclavicle -3.92429e-014 1.13804e-014
lhumerus -29.9943 1.91723 87.376
lradius 25.4919
lwrist -9.38535
lhand -19.0805 26.5114
lfingers 7.12502
lthumb 7.22743 56.368
rfemur -10.7897 -1.89434 19.2487
rtibia 34.1051
rfoot -17.0379 -10.6225
rtoes -3.69862
lfemur -6.23435 0.268365 -23.4976
ltibia 24.8543
lfoot -13.9516 -0.150986
ltoes -4.58447
12
root 16.0297 17.8504 -9.80086 0.68003 -10.2694 0.199091
lowerback 7.94917 0.100526 -2.38474
upperback -0.516309 -0.0667326 0.552442
thorax -4.99711 0.0374198 1.9244
lowerneck -19.8099 -9.20041 -14.0065
upperneck 23.4814 -12.0755 12.2434
head 12.7823 -5.19761 4.87328
rclavicle -2.79417e-014 -7.05686e-015
rhumerus -30.6228 -12.3724 -82.4448
rradius 27.3074
rwrist 10.5658
rhand -16.0765 8.74085
rfingers 7.12502
rthumb 10.1264 -20.9955
lclavicle -2.79417e-014 -7.05686e-015
lhumerus -30.0392 1.76903 87.4561
lradius 25.5289
lwrist -9.2616
lhand -19.1775 26.5507
lfingers 7.12502
lthumb 7.13383 56.4105
rfemur -10.7566 -1.90347 19.2591
rtibia 34.1254
rfoot -16.8421 -10.6782
rtoes -6.04904
lfemur -6.21092 0.296618 -23.4762
ltibia 24.8291
lfoot -13.9357 -0.172658
ltoes -4.74542
13
root 16.0295 17.8533 -9.80159 0.689383 -10.2486 0.195668
lowerback 8.01856 0.110467 -2.42574
upperback -0.568131 -0.0574198 0.595043
thorax -5.09105 0.0455395 1.99122
lowerneck -19.7624 -9.17413 -14.0113
upperneck 23.595 -12.0292 12.1556
head 12.8038 -5.18947 4.85308
rclavicle -2.26118e-014 2.88238e-015
rhumerus -30.7151 -12.38 -82.3375
rradius 27.2888
rwrist 10.606
rhand -16.0956 8.7497
rfingers 7.12502
rthumb 10.1079 -20.9875
lclavicle -2.26118e-014 2.88238e-015
lhumerus -30.1227 1.71843 87.5425
lradius 25.5283
lwrist -9.2043
lhand -19.1758 26.5909
lfingers 7.12502
lthumb 7.13549 56.4506
rfemur -10.765 -1.9299 19.2531
rtibia 34.1485
rfoot -16.7805 -10.6608
rtoes -6.97488
lfemur -6.20353 0.210713 -23.4782
ltibia 24.7921
lfoot -13.8945 -0.151379
ltoes -4.60979
14
root 16.0288 17.8546 -9.80333 0.674951 -10.185 0.244615
lowerback 8.09884 0.0904259 -2.52066
upperback -0.599537 -0.094334 0.621027
thorax -5.16738 0.0316965 2.07686
lowerneck -19.7713 -9.12329 -14.0094
upperneck 23.7066 -11.9451 12.0818
head 12.8305 -5.16023 4.84367
rclavicle 4.19933e-015 -1.2921e-015
rhumerus -30.7657 -12.2632 -82.312
rradius 27.3106
rwrist 10.5277
rhand -16.1436 8.67451
rfingers 7.12502
rthumb 10.0616 -21.065
lclavicle 4.19933e-015 -1.2921e-015
lhumerus -30.1517 1.83795 87.5451
lradius 25.4935
lwrist -9.37194
lhand -19.0052 26.4891
lfingers 7.12502
lthumb 7.30018 56.3432
rfemur -10.7582 -1.93067 19.2031
rtibia 34.1701
rfoot -16.8114 -10.6839
rtoes -6.71036
lfemur -6.1908 0.167371 -23.5227
ltibia 24.7519
lfoot -13.8254 -0.219633
ltoes -4.39615
